<?xml version="1.0" encoding="UTF-8" standalone="no"?>
<svg
   xmlns:dc="http://purl.org/dc/elements/1.1/"
   xmlns:cc="http://creativecommons.org/ns#"
   xmlns:rdf="http://www.w3.org/1999/02/22-rdf-syntax-ns#"
   xmlns:svg="http://www.w3.org/2000/svg"
   xmlns="http://www.w3.org/2000/svg"
   xmlns:sodipodi="http://sodipodi.sourceforge.net/DTD/sodipodi-0.dtd"
   xmlns:inkscape="http://www.inkscape.org/namespaces/inkscape"
   enable-background="new 0 0 32 32"
   version="1.1"
   viewBox="0 0 32 32"
   xml:space="preserve"
   id="svg2"
   inkscape:version="0.91 r13725"
   sodipodi:docname="facebook.svg"><metadata
     id="metadata13"><rdf:RDF><cc:Work
         rdf:about=""><dc:format>image/svg+xml</dc:format><dc:type
           rdf:resource="http://purl.org/dc/dcmitype/StillImage" /></cc:Work></rdf:RDF></metadata><defs
     id="defs11" /><sodipodi:namedview
     pagecolor="#ffffff"
     bordercolor="#666666"
     borderopacity="1"
     objecttolerance="10"
     gridtolerance="10"
     guidetolerance="10"
     inkscape:pageopacity="0"
     inkscape:pageshadow="2"
     inkscape:window-width="1680"
     inkscape:window-height="1028"
     id="namedview9"
     showgrid="false"
     inkscape:zoom="7.375"
     inkscape:cx="-14.665938"
     inkscape:cy="16"
     inkscape:window-x="-8"
     inkscape:window-y="-8"
     inkscape:window-maximized="1"
     inkscape:current-layer="svg2" /><g
     id="Outline_Color_copy_2"
     style="fill:#ffffff;fill-opacity:1;opacity:1;stroke:#000000;stroke-opacity:1;stroke-width:0.59999999;stroke-miterlimit:4;stroke-dasharray:none"><path
       d="M28,1c1.654,0,3,1.346,3,3v24c0,1.654-1.346,3-3,3H4c-1.654,0-3-1.346-3-3V4c0-1.654,1.346-3,3-3H28 M28,0H4   C1.8,0,0,1.8,0,4v24c0,2.2,1.8,4,4,4h24c2.2,0,4-1.8,4-4V4C32,1.8,30.2,0,28,0L28,0z"
       id="path5"
       style="fill:#ffffff;fill-opacity:1;stroke:#000000;stroke-opacity:1;stroke-width:0.59999999;stroke-miterlimit:4;stroke-dasharray:none" /><path
       d="M13.597,25.261h3.827v-9.262h2.553l0.338-3.191h-2.891l0.004-1.598c0-0.832,0.079-1.278,1.273-1.278h1.596V6.739h-2.554   c-3.067,0-4.146,1.549-4.146,4.152v1.916h-1.912v3.192h1.912V25.261z"
       id="path7"
       style="fill:#ffffff;fill-opacity:1;stroke:#000000;stroke-opacity:1;stroke-width:0.59999999;stroke-miterlimit:4;stroke-dasharray:none" /></g></svg>