<?xml version="1.0" standalone="no"?>
<!DOCTYPE svg PUBLIC "-//W3C//DTD SVG 20010904//EN"
 "http://www.w3.org/TR/2001/REC-SVG-20010904/DTD/svg10.dtd">
<svg version="1.0" xmlns="http://www.w3.org/2000/svg"
 width="256.000000pt" height="256.000000pt" viewBox="0 0 256.000000 256.000000"
 preserveAspectRatio="xMidYMid meet">
<metadata>
Created by potrace 1.13, written by Peter Selinger 2001-2015
</metadata>
<g transform="translate(0.000000,256.000000) scale(0.100000,-0.100000)"
fill="#000000" stroke="none">
<path d="M1038 2530 c-383 -81 -691 -307 -877 -645 -59 -108 -116 -267 -136
-383 -22 -126 -20 -351 5 -473 52 -255 169 -470 354 -654 182 -182 382 -290
641 -347 130 -28 383 -27 521 3 449 97 806 419 948 854 46 142 57 218 57 395
0 180 -11 252 -61 401 -65 195 -165 355 -315 503 -188 186 -412 302 -674 351
-117 21 -350 19 -463 -5z m497 -258 c140 -40 258 -95 353 -167 554 -419 558
-1232 10 -1646 -512 -385 -1245 -213 -1532 358 -75 150 -98 243 -104 418 -6
206 21 341 101 500 141 282 396 477 718 550 93 21 359 13 454 -13z"/>
<path d="M1319 1960 c-57 -10 -116 -40 -151 -77 -47 -49 -60 -97 -66 -235 l-5
-128 -68 0 -69 0 0 -126 0 -126 70 4 70 3 2 -350 3 -350 140 0 140 0 3 346 2
346 38 7 c20 3 62 6 93 6 66 0 64 -5 74 136 l7 91 -32 7 c-18 3 -66 6 -106 6
l-74 0 0 84 c0 112 4 116 121 116 l89 0 0 125 0 125 -117 -1 c-65 -1 -139 -5
-164 -9z"/>
</g>
</svg>
